<svg width="18" height="18" viewBox="0 0 18 18" fill="none" xmlns="http://www.w3.org/2000/svg">
<g id="Profile Circle 2">
<path id="Vector" fill-rule="evenodd" clip-rule="evenodd" d="M0.041687 9.00008C0.041687 4.05253 4.05247 0.041748 9.00002 0.041748C13.9476 0.041748 17.9584 4.05253 17.9584 9.00008C17.9584 11.5405 16.9001 13.8348 15.2021 15.4643C13.5931 17.0084 11.4068 17.9584 9.00002 17.9584C6.59321 17.9584 4.40696 17.0084 2.79794 15.4643C1.09993 13.8348 0.041687 11.5405 0.041687 9.00008ZM14.0693 14.8072C13.7101 13.7327 12.6949 12.9584 11.5 12.9584H6.50002C5.30513 12.9584 4.28995 13.7327 3.93074 14.8072C5.28629 15.9916 7.05887 16.7084 9.00002 16.7084C10.9412 16.7084 12.7138 15.9916 14.0693 14.8072ZM9.00002 2.54175C6.81389 2.54175 5.04169 4.31395 5.04169 6.50008C5.04169 8.68621 6.81389 10.4584 9.00002 10.4584C11.1861 10.4584 12.9584 8.68621 12.9584 6.50008C12.9584 4.31395 11.1861 2.54175 9.00002 2.54175Z" fill="#A3A3A3"/>
</g>
</svg>
